<svg width="408" height="379" viewBox="0 0 408 379" fill="none" xmlns="http://www.w3.org/2000/svg">
<path d="M267.108 35.9365C263.307 35.9672 259.57 35.4736 255.901 34.4509C246.073 31.626 239.189 25.1613 232.532 18.9092C224.367 11.2376 216.652 3.99348 203.877 2.87155C185.835 1.28432 166.946 1.82993 148.682 2.34956C139.653 2.60938 130.315 2.87628 121.279 2.87628H25.2275V1.05521H121.279C130.292 1.05521 139.614 0.790673 148.632 0.530858C166.95 0.00650406 185.886 -0.536745 204.029 1.05994C217.409 2.23383 225.711 10.0306 233.737 17.5676C240.238 23.6756 246.962 29.9891 256.379 32.6959C271.966 37.1742 289.883 30.3859 305.695 24.4031C307.93 23.5552 310.105 22.7332 312.204 21.9703C316.248 20.4988 320.266 18.9824 324.279 17.4731C342.898 10.4629 362.15 3.2164 382.591 1.0623L382.771 2.87155C362.559 5.00203 343.413 12.2131 324.896 19.1832C320.878 20.6972 316.85 22.2136 312.802 23.6851C310.708 24.4456 308.542 25.2676 306.313 26.1108C294.465 30.5962 280.369 35.9342 267.108 35.9365Z" fill="#82AA74"/>
<path d="M271.886 54.344C268.136 54.368 264.43 53.9591 260.767 53.1247C250.988 50.8366 242.839 45.524 234.96 40.3812C225.24 34.0382 216.059 28.0466 203.883 27.0066C198.71 26.5643 193.51 26.1076 188.282 25.6342C166.037 23.6498 143.036 21.5984 120.754 21.168C104.188 20.8596 87.4325 22.4854 71.2474 24.0658C56.4247 25.5147 41.1032 27.0114 25.888 27.0114H25.2275V25.1656C40.5652 25.1584 56.0807 23.6952 71.0765 22.2296C87.3125 20.6444 104.075 19.0019 120.784 19.3246C143.123 19.7574 166.158 21.8112 188.432 23.798C193.655 24.2618 198.851 24.7209 204.024 25.1704C216.636 26.2487 226.432 32.6395 235.907 38.8224C243.659 43.8791 251.674 49.1104 261.158 51.3291C276.761 54.9705 294.015 49.3901 309.247 44.4601C311.332 43.7835 313.385 43.1188 315.401 42.49C318.797 41.4261 322.183 40.3502 325.556 39.2623C343.887 33.395 362.843 27.3294 382.582 25.1728L382.771 27.0066C363.201 29.1417 345.173 34.9085 326.083 41.0244C322.705 42.1098 319.315 43.1858 315.913 44.2545C313.904 44.8833 311.856 45.548 309.78 46.2198C297.839 50.0835 284.67 54.344 271.886 54.344Z" fill="#82AA74"/>
<path d="M282.694 65.7398C278.634 65.7468 274.586 65.5386 270.55 65.1128C259.572 63.9429 248.936 61.0065 238.649 58.1683C227.474 55.0845 215.922 51.8978 203.942 50.9806C189.433 49.8692 175.308 45.9899 161.644 42.2392C148.06 38.5073 134.011 34.6514 119.719 33.5798C101.613 32.2157 83.906 37.3023 66.765 42.2135C53.3395 46.0601 39.4567 50.0353 25.3453 50.9806L25.2275 49.179C39.1496 48.2478 52.9423 44.2959 66.2801 40.4774C83.5689 35.5241 101.456 30.4117 119.848 31.7805C134.311 32.8638 148.443 36.7431 162.111 40.5008C175.691 44.2304 189.736 48.084 204.076 49.1837C216.226 50.1149 227.86 53.325 239.115 56.4299C249.333 59.2517 259.902 62.167 270.737 63.3228C292.397 65.6298 314.408 60.9948 335.689 56.5024C351.082 53.2548 367 49.8973 382.693 49.1837L382.771 50.9853C367.221 51.6942 351.376 55.0354 336.052 58.269C318.583 61.9517 300.625 65.7398 282.694 65.7398Z" fill="#82AA74"/>
<path d="M283.915 78.8881C282.479 78.8881 281.045 78.881 279.613 78.8645C256.534 78.6101 231.091 77.4231 203.986 75.3317C187.986 74.0952 173.451 67.364 159.394 60.8565C146.465 54.8672 133.098 48.6824 118.762 46.9066C100.241 44.6268 82.7015 52.9572 65.7371 61.0167C52.7835 67.1756 39.3888 73.5417 25.4515 75.3246L25.2275 73.5229C38.8901 71.7753 52.16 65.4704 64.9867 59.3704C82.1774 51.2025 99.9523 42.752 118.976 45.1025C133.583 46.909 147.077 53.1573 160.128 59.2008C174.044 65.6447 188.434 72.3076 204.117 73.5158C231.184 75.6072 256.59 76.7943 279.629 77.0463C296.748 77.2418 314.119 76.2408 330.913 75.2775C347.889 74.3072 365.451 73.3038 382.771 73.5135L382.75 75.3317C365.479 75.1244 347.965 76.123 331.012 77.0934C315.595 77.9766 299.69 78.8881 283.915 78.8881Z" fill="#82AA74"/>
<path d="M259.501 100.801C240.77 100.801 222.035 100.33 203.577 98.9194C187.201 97.6648 172.708 90.2742 158.687 83.1253C145.877 76.5921 132.63 69.8381 118.125 67.9353C99.5214 65.4795 83.2604 74.0991 66.0555 83.2113C53.1316 90.0535 39.7738 97.1281 25.4468 98.9194L25.2275 97.1397C39.2315 95.3879 52.4462 88.3923 65.2246 81.6244C81.9195 72.7864 99.1845 63.651 118.353 66.1626C133.158 68.1049 146.544 74.9309 159.493 81.5315C173.356 88.6014 187.692 95.9153 203.711 97.1351C240.812 99.9789 279.103 98.9984 316.137 98.0528C337.757 97.5022 360.104 96.9353 381.901 97.1328L381.883 98.9264C360.125 98.7243 337.785 99.2935 316.183 99.8441C297.508 100.316 278.508 100.801 259.501 100.801Z" fill="#82AA74"/>
<path d="M289.732 129.727C287.921 129.727 286.111 129.704 284.3 129.654C268.813 129.203 253.074 127.634 237.852 126.117C226.654 125 215.076 123.845 203.706 123.152C188.11 122.193 173.456 116.762 159.282 111.509C145.66 106.458 131.57 101.237 116.803 100.1C100.211 98.8258 84.5298 105.341 69.3701 111.644C57.2285 116.689 44.6736 121.91 31.5021 123.278L31.3174 121.523C44.2256 120.182 56.6582 115.014 68.682 110.015C84.0357 103.632 99.9112 97.0162 116.944 98.3431C131.96 99.4984 146.168 104.763 159.908 109.855C173.957 115.065 188.486 120.452 203.819 121.39C215.219 122.088 226.816 123.243 238.032 124.362C253.219 125.877 268.931 127.444 284.354 127.892C300.762 128.37 317.234 126.529 333.16 124.746C346.786 123.223 360.879 121.649 374.926 121.518L374.942 123.282C360.988 123.41 346.943 124.982 333.361 126.499C319.12 128.087 304.45 129.727 289.732 129.727Z" fill="#82AA74"/>
<path d="M289.895 163.912C287.163 163.914 284.441 163.752 281.728 163.425C269.977 161.998 258.41 158.967 247.222 156.033C233.157 152.346 218.621 148.53 203.711 147.939C189.297 147.366 174.974 144.82 161.121 142.359C147.728 139.979 133.876 137.515 120.028 136.864C105.203 136.169 90.8496 139.309 76.9601 142.345C65.329 144.889 53.303 147.516 40.9491 147.939L40.8867 146.159C53.0813 145.739 65.0265 143.13 76.5791 140.604C90.584 137.543 105.062 134.378 120.111 135.087C134.074 135.742 147.982 138.215 161.435 140.604C175.226 143.056 189.491 145.593 203.78 146.159C218.885 146.757 233.52 150.598 247.675 154.31C258.803 157.228 270.311 160.246 281.943 161.659C298.619 163.679 313.365 159.052 328.973 154.151C340.015 150.684 351.431 147.101 363.494 146.163L363.633 147.936C351.773 148.86 340.454 152.413 329.506 155.85C316.845 159.823 303.824 163.912 289.895 163.912Z" fill="#82AA74"/>
<path d="M290.065 195.467C287.157 195.46 284.274 195.194 281.417 194.667C269.742 192.544 258.515 188.064 247.657 183.729C233.578 178.112 219.02 172.302 203.527 171.714C173.789 170.582 143.597 171.006 114.396 171.422C92.5886 171.726 70.0367 172.043 47.8457 171.714L47.8758 169.9C70.0297 170.229 92.5747 169.911 114.368 169.606C143.588 169.189 173.805 168.768 203.587 169.9C219.386 170.5 234.085 176.369 248.303 182.042C259.08 186.344 270.225 190.789 281.724 192.881C298.642 195.947 310.796 189.212 323.663 182.073C333.059 176.858 342.779 171.465 354.709 169.907L354.933 171.707C343.334 173.22 333.767 178.529 324.517 183.666C313.645 189.702 303.261 195.467 290.065 195.467Z" fill="#82AA74"/>
<path d="M288.978 219.133C286.037 219.129 283.119 218.86 280.225 218.326C268.756 216.235 257.711 211.855 247.033 207.616C233.147 202.11 218.788 196.41 203.52 195.828C176.219 194.789 147.955 193.753 119.819 193.788C108.956 193.817 97.9226 194.334 87.2543 194.832C74.351 195.438 61.0058 196.061 47.8457 195.825L47.8758 194.006C60.9803 194.234 74.2931 193.614 87.1733 193.01C97.8601 192.509 108.912 191.992 119.817 191.964C147.937 191.896 176.265 192.962 203.587 194.003C219.156 194.598 233.656 200.354 247.679 205.917C258.28 210.125 269.24 214.472 280.54 216.53C297.455 219.601 310.106 212.936 323.509 205.874C333.069 200.833 342.955 195.625 354.697 194.013L354.933 195.816C343.499 197.383 333.754 202.523 324.328 207.491C313.03 213.448 302.251 219.133 288.978 219.133Z" fill="#82AA74"/>
<path d="M283.766 233.158C280.542 233.165 277.325 232.996 274.118 232.657C263.482 231.519 252.966 229.095 242.796 226.754C230.137 223.839 217.047 220.825 203.718 220.303C188.24 219.695 172.934 216.59 158.133 213.59C144.1 210.746 129.594 207.805 115.037 207.016C100.877 206.269 87.7006 209.975 74.9447 213.574C64.0962 216.637 52.8829 219.805 40.9606 220.303L40.8867 218.498C52.5988 218.006 63.7152 214.869 74.4667 211.837C87.3565 208.193 100.685 204.424 115.129 205.215C129.818 206.007 144.388 208.959 158.479 211.816C173.214 214.803 188.45 217.894 203.787 218.496C217.282 219.027 230.454 222.062 243.189 224.993C253.31 227.323 263.773 229.732 274.307 230.861C292.141 232.778 309.836 228.737 326.949 224.841C338.856 222.125 351.166 219.32 363.513 218.496L363.633 220.299C351.42 221.113 339.179 223.904 327.34 226.604C313.157 229.835 298.579 233.158 283.766 233.158Z" fill="#82AA74"/>
<path d="M251.854 244.553C235.736 244.553 219.58 244.292 203.595 243.508C185.86 242.638 169.245 235.957 153.174 229.5C138.139 223.451 122.583 217.198 106.264 215.817C90.879 214.516 78.45 221.821 65.2751 229.555C54.8063 235.704 43.9774 242.059 31.5414 243.69L31.3174 241.91C43.3932 240.326 54.0651 234.064 64.3815 228.004C77.217 220.471 90.5027 212.669 106.418 214.03C123.003 215.435 138.679 221.737 153.837 227.834C169.771 234.243 186.243 240.861 203.683 241.717C236.01 243.301 269.098 242.75 301.095 242.215C325.33 241.81 350.389 241.389 374.942 241.901L374.903 243.697C350.386 243.185 325.344 243.604 301.123 244.009C284.902 244.278 268.4 244.553 251.854 244.553Z" fill="#82AA74"/>
<path d="M206.887 269.096C205.791 269.096 204.697 269.069 203.599 269.011C184.454 268.009 167.304 258.665 150.721 249.629C135.983 241.599 120.739 233.296 104.266 230.999C86.6299 228.524 74.0449 238.687 60.7306 249.439C50.1808 257.954 39.2732 266.763 25.5021 269.002L25.2275 267.163C38.5487 265.001 49.2716 256.344 59.6415 247.971C72.6557 237.461 86.1177 226.591 104.504 229.155C121.286 231.5 136.668 239.878 151.542 247.981C167.958 256.925 184.931 266.172 203.689 267.156C214.857 267.741 226.081 265.088 236.922 262.519C244.755 260.663 252.857 258.742 260.922 258.048C285.48 255.92 310.867 259.229 335.421 262.422C350.736 264.413 366.573 266.474 381.901 267.156L381.825 269.014C366.425 268.327 350.554 266.262 335.202 264.266C310.743 261.085 285.448 257.79 261.067 259.901C253.127 260.586 245.088 262.49 237.314 264.333C227.412 266.678 217.204 269.096 206.887 269.096Z" fill="#82AA74"/>
<path d="M206.947 292.762C205.972 292.762 204.991 292.736 204.007 292.685C185.08 291.647 168.156 282.549 151.793 273.748C137.169 265.886 122.051 257.754 105.663 255.53C87.977 253.119 75.0683 263.069 61.4047 273.59C50.5716 281.926 39.3715 290.556 25.4838 292.678L25.2275 290.839C38.6742 288.784 49.6896 280.301 60.3472 272.097C73.6923 261.816 87.4852 251.192 105.896 253.687C122.591 255.956 137.852 264.162 152.611 272.099C168.807 280.806 185.555 289.813 204.1 290.83C215.695 291.447 226.759 288.039 237.444 284.722C245.578 282.195 253.987 279.585 262.689 278.722C285.777 276.429 309.258 280.525 331.965 284.488C348.647 287.397 365.901 290.409 382.771 290.83L382.73 292.683C365.732 292.26 348.416 289.238 331.672 286.315C309.073 282.371 285.708 278.292 262.857 280.566C254.331 281.414 246.003 283.998 237.952 286.496C228.017 289.584 217.768 292.762 206.947 292.762Z" fill="#82AA74"/>
<path d="M205.105 316.429C204.741 316.429 204.373 316.426 204.006 316.419C185.795 316.01 169.29 307.915 153.327 300.089C139.44 293.276 125.079 286.235 109.744 284.371C92.0546 282.241 78.0589 290.872 63.239 300.03C51.5636 307.245 39.4934 314.701 25.4399 316.412L25.2275 314.621C38.8977 312.957 50.8017 305.602 62.3108 298.487C76.7383 289.575 91.669 280.354 109.957 282.58C125.587 284.477 140.084 291.588 154.102 298.464C169.894 306.208 186.222 314.212 204.043 314.614C216.965 314.842 228.599 309.851 239.875 304.963C248.748 301.114 257.927 297.141 267.772 295.678C290.294 292.312 313.287 298.7 335.516 304.86C351.074 309.172 367.164 313.631 382.771 314.612L382.66 316.417C366.875 315.424 350.693 310.937 335.047 306.601C312.996 300.487 290.202 294.175 268.028 297.46C258.412 298.892 249.346 302.821 240.575 306.622C229.442 311.447 217.937 316.429 205.105 316.429Z" fill="#82AA74"/>
<path d="M203.371 340.972C186.227 340.972 170.385 333.603 155.051 326.467C141.935 320.368 128.374 314.056 114.144 312.467C96.323 310.459 81.2682 318.227 65.3291 326.438C52.7607 332.909 39.7699 339.602 25.3891 340.962L25.2275 339.104C39.2827 337.778 52.1235 331.16 64.5442 324.766C80.0077 316.8 96.0067 308.565 114.333 310.609C128.843 312.232 142.531 318.607 155.771 324.761C171.115 331.9 187.031 339.382 203.981 339.102C218.302 338.947 230.706 331.856 242.702 324.998C252.315 319.504 262.254 313.819 273.25 311.584C295.169 307.111 317.267 316.296 338.636 325.163C353.172 331.198 368.206 337.435 382.771 339.106L382.577 340.96C367.772 339.261 352.627 332.976 337.981 326.897C316.852 318.133 294.998 309.066 273.592 313.41C262.864 315.595 253.049 321.205 243.556 326.636C231.366 333.603 218.766 340.807 203.999 340.962C203.794 340.972 203.582 340.972 203.371 340.972Z" fill="#82AA74"/>
<mask id="mask0_1102_2" style="mask-type:luminance" maskUnits="userSpaceOnUse" x="24" y="331" width="360" height="34">
<path d="M24.6533 331.093H383.373V364.679H24.6533V331.093Z" fill="white"/>
</mask>
<g mask="url(#mask0_1102_2)">
<path d="M202.982 364.699C186.368 364.699 170.855 358.142 155.845 351.798C143.022 346.379 129.758 340.77 115.956 339.35C97.9757 337.475 81.4058 344.787 65.3862 351.835C52.4882 357.506 39.1509 363.376 24.8933 364.692L24.7314 362.897C38.7023 361.61 51.9055 355.801 64.674 350.183C80.9017 343.042 97.6797 335.66 116.136 337.553C130.202 339.004 143.588 344.663 156.532 350.134C171.622 356.516 187.212 363.213 203.768 362.893C218.906 362.699 231.659 354.889 243.992 347.334C253.963 341.228 264.271 334.914 275.923 332.468C297.659 327.909 318.513 337.807 338.674 347.388C353.05 354.221 367.915 361.28 382.839 362.9L382.647 364.694C367.427 363.04 352.425 355.913 337.916 349.022C318.018 339.567 297.455 329.778 276.286 334.237C264.935 336.616 254.759 342.85 244.917 348.879C232.378 356.558 219.415 364.498 203.786 364.699C203.52 364.699 203.25 364.699 202.982 364.699Z" fill="#82AA74"/>
</g>
<path d="M384.286 363.761H382.498C382.498 353.862 382.857 343.497 383.205 333.477C383.978 311.16 384.778 288.088 381.878 266.609C380.067 253.204 373.86 240.732 367.859 228.673C360.705 214.293 353.306 199.425 353.195 182.763C353.083 166.102 360.631 151.133 367.931 136.662C373.368 125.882 378.993 114.736 381.326 103.051C385.701 81.1533 384.56 56.3305 383.453 32.3189C382.962 21.6352 382.498 11.5452 382.498 1.7522H384.286C384.286 11.5032 384.748 21.5744 385.242 32.2371C386.351 56.3539 387.496 81.2935 383.08 103.407C380.698 115.334 375.017 126.593 369.524 137.48C362.322 151.757 354.874 166.52 354.983 182.752C355.092 198.983 362.394 213.667 369.457 227.864C375.525 240.056 381.797 252.664 383.648 266.365C386.571 287.995 385.768 311.151 384.991 333.54C384.646 343.543 384.286 353.893 384.286 363.761Z" fill="#82AA74"/>
<path d="M358.714 358.501H356.918C356.946 330.723 356.592 298.156 353.752 267.231C352.602 254.7 348.271 242.559 344.085 230.817C339.162 217.015 334.071 202.742 334.055 187.666C334.038 170.687 340.13 154.523 346.023 138.893C350.596 126.757 355.328 114.209 357.119 101.43C359.708 82.9667 357.716 63.7769 355.79 45.2181C354.512 32.9414 353.194 20.2488 353.215 7.88794H355.015C354.992 20.1529 356.307 32.7989 357.576 45.0288C359.514 63.6927 361.52 82.9947 358.901 101.677C357.082 114.655 352.315 127.299 347.704 139.526C341.87 155.005 335.836 171.011 335.853 187.659C335.869 202.424 340.904 216.547 345.778 230.207C350.002 242.056 354.37 254.305 355.543 267.063C358.39 298.067 358.745 330.685 358.714 358.501Z" fill="#82AA74"/>
<path d="M330.098 346.23C329.636 332.887 327.82 319.536 326.062 306.629C324.071 291.993 322.013 276.862 321.902 261.624C321.843 253.44 321.656 245.105 321.479 237.047C321.183 223.899 320.878 210.304 321.122 196.935C321.44 179.38 324.437 161.932 327.343 145.059C329.617 131.853 331.965 118.199 333.003 104.609C334.295 87.7118 330.207 72.0189 326.252 56.8439C323.207 45.1454 320.053 33.0502 319.267 20.2784L320.942 20.1594C321.719 32.7469 324.845 44.7511 327.87 56.361C331.862 71.6876 335.992 87.5392 334.676 104.76C333.631 118.44 331.272 132.14 328.994 145.388C326.103 162.191 323.115 179.567 322.799 196.972C322.56 210.304 322.863 223.878 323.157 237.007C323.337 245.073 323.525 253.412 323.581 261.61C323.69 276.725 325.74 291.797 327.724 306.37C329.488 319.326 331.309 332.726 331.777 346.162L330.098 346.23Z" fill="#82AA74"/>
<path d="M304.424 335.712C303.625 325.116 300.438 314.359 297.356 303.957C292.974 289.161 288.442 273.863 290.522 258.46C291.737 249.455 295.342 241.374 298.826 233.56C302.711 224.852 306.725 215.848 307.329 205.648C309.187 174.154 310.25 140.365 310.481 105.225C310.57 91.8541 310.033 80.6286 302.443 68.0847C300.848 65.4504 299.314 63.0526 297.856 60.7813C291.874 51.4547 287.148 44.0858 285.339 30.9214L287.136 30.6779C288.896 43.4489 293.526 50.6703 299.389 59.8119C300.855 62.0949 302.4 64.5044 304.002 67.1527C311.824 80.0783 312.387 92.0461 312.299 105.236C312.066 140.407 311.006 174.226 309.145 205.756C308.521 216.281 304.438 225.437 300.489 234.29C297.055 241.99 293.504 249.951 292.322 258.699C290.293 273.725 294.772 288.833 299.102 303.449C302.209 313.94 305.423 324.788 306.238 335.578L304.424 335.712Z" fill="#82AA74"/>
<path d="M279.775 332.205C278.95 321.503 275.504 311.018 272.17 300.88C267.83 287.679 263.339 274.026 264.572 259.696C265.459 249.374 270.494 241.543 275.364 233.971C280.341 226.229 285.486 218.226 286.114 207.544C287.496 183.977 287.059 159.715 286.636 136.251C286.436 125.203 286.229 113.78 286.22 102.62C286.208 90.4996 285.624 80.4131 278.368 70.1796C276.246 67.1868 274.265 64.6558 272.349 62.2088C266.085 54.2101 261.139 47.8931 259.24 34.4382L260.994 34.184C262.82 47.156 267.4 52.9994 273.731 61.0915C275.662 63.5548 277.656 66.1021 279.805 69.1299C287.365 79.7973 287.976 90.1684 287.988 102.623C287.999 113.768 288.204 125.184 288.401 136.223C288.827 159.72 289.261 184.017 287.875 207.654C287.222 218.814 281.943 227.02 276.842 234.958C271.874 242.686 267.181 249.983 266.331 259.857C265.13 273.814 269.561 287.287 273.844 300.315C277.212 310.558 280.693 321.144 281.534 332.068L279.775 332.205Z" fill="#82AA74"/>
<path d="M257.826 340.971C257.151 329.813 254.455 318.498 251.85 307.56C248.344 292.853 244.718 277.641 245.887 262.432C246.703 251.83 250.572 242.19 254.312 232.859C258.222 223.114 262.262 213.035 262.747 201.933C263.86 176.388 263.486 150.201 263.123 124.877C263.018 117.48 262.923 110.1 262.842 102.731C262.715 89.1779 261.47 78.3169 255.686 66.0571C255.006 64.6115 254.331 63.2009 253.666 61.8114C248.12 50.1996 243.328 40.1714 241.842 26.487L243.671 26.2952C245.124 39.6801 249.854 49.582 255.333 61.0465C255.999 62.4407 256.674 63.8536 257.358 65.3015C263.262 77.8116 264.555 89.3065 264.681 102.715C264.753 110.079 264.846 117.459 264.965 124.856C265.327 150.203 265.702 176.414 264.588 202.012C264.089 213.418 259.989 223.638 256.025 233.521C252.332 242.724 248.516 252.24 247.722 262.57C246.572 277.506 250.164 292.575 253.639 307.15C256.263 318.166 258.975 329.553 259.66 340.868L257.826 340.971Z" fill="#82AA74"/>
<path d="M235.94 352.366C235.749 339.19 234.46 325.831 233.215 312.917C231.639 296.566 230.01 279.66 230.577 262.893C230.972 251.301 232.692 239.738 234.355 228.555C236.148 216.5 238.002 204.037 238.184 191.559C238.467 172.264 238.373 152.623 238.278 133.628C238.229 123.633 238.18 113.634 238.184 103.645C238.191 87.5487 235.789 71.6739 233.468 56.3202C231.352 42.317 229.161 27.8372 228.793 13.1938L230.521 13.1471C230.885 27.6736 233.067 42.0951 235.176 56.0398C237.509 71.4636 239.919 87.4085 239.912 103.645C239.912 113.632 239.96 123.626 240.009 133.619C240.101 152.623 240.198 172.271 239.912 191.587C239.728 204.189 237.865 216.715 236.063 228.83C234.409 239.962 232.696 251.474 232.306 262.956C231.74 279.602 233.365 296.446 234.936 312.739C236.184 325.689 237.477 339.082 237.67 352.338L235.94 352.366Z" fill="#82AA74"/>
<path d="M216.458 362.884L214.604 362.87C215.037 307.29 214.482 250.726 213.946 196.026C213.33 133.192 212.693 68.2196 213.549 4.38184L215.403 4.40519C214.549 68.222 215.184 133.185 215.8 196.012C216.336 250.719 216.891 307.285 216.458 362.884Z" fill="#82AA74"/>
<path d="M192.603 362.884L190.516 362.87C191.241 256.754 191.057 148.825 190.876 44.4499L190.803 1.7522H192.889L192.96 44.4499C193.144 148.825 193.328 256.759 192.603 362.884Z" fill="#82AA74"/>
<path d="M165.615 354.995C165.446 340.19 164.348 325.15 163.289 310.604C161.975 292.529 160.611 273.842 161.007 255.409C161.262 243.54 162.784 231.622 164.254 220.097C165.803 207.955 167.406 195.4 167.52 182.923C167.839 147.408 167.725 111.27 167.612 76.3209C167.532 51.8765 167.451 26.5991 167.52 1.7522H169.428C169.359 26.5967 169.44 51.8695 169.52 76.3092C169.633 111.263 169.75 147.408 169.425 182.932C169.312 195.51 167.703 208.116 166.147 220.31C164.684 231.788 163.17 243.659 162.915 255.437C162.519 273.792 163.878 292.438 165.194 310.473C166.256 325.047 167.352 340.115 167.525 354.967L165.615 354.995Z" fill="#82AA74"/>
<path d="M139.639 344.477C139.121 330.526 137.108 316.072 135.16 302.105C132.243 281.157 129.224 259.492 131.041 238.575C131.845 229.34 134.518 220.623 137.104 212.189C139.994 202.776 142.981 193.041 143.297 182.665C143.946 161.463 143.16 139.786 142.4 118.824C141.948 106.334 141.478 93.4181 141.32 80.7546C141.13 65.6281 141.727 50.3099 142.305 35.4965C142.735 24.4408 143.184 13.0112 143.297 1.7522L145.04 1.77089C144.924 13.0556 144.477 24.5016 144.045 35.569C143.469 50.359 142.875 65.6514 143.062 80.7289C143.221 93.3737 143.688 106.278 144.14 118.757C144.902 139.749 145.686 161.458 145.04 182.721C144.714 193.349 141.691 203.206 138.764 212.736C136.202 221.074 133.56 229.697 132.776 238.736C130.978 259.445 133.981 281.001 136.884 301.848C138.837 315.864 140.857 330.36 141.381 344.407L139.639 344.477Z" fill="#82AA74"/>
<path d="M114.578 338.341C113.665 319.612 110.725 301.748 107.616 282.838L106.898 278.477C106.472 275.862 105.997 273.18 105.508 270.451C103.083 256.787 100.337 241.301 102.664 227.569C104.013 219.62 107.592 213.208 111.052 207.011C115.275 199.45 119.264 192.306 119.631 182.501C120.506 159.468 119.423 135.896 118.379 113.1C117.738 99.0917 117.075 84.6068 116.87 70.4165C116.689 57.5849 117.506 44.6598 118.298 32.1579C118.927 22.2098 119.578 11.9225 119.719 1.7522L121.555 1.77558C121.414 11.9857 120.763 22.2986 120.132 32.2702C119.342 44.737 118.527 57.6294 118.71 70.3908C118.911 84.5554 119.574 99.0239 120.215 113.018C121.262 135.851 122.344 159.461 121.472 182.568C121.085 192.8 116.803 200.465 112.664 207.876C109.276 213.94 105.773 220.217 104.476 227.864C102.199 241.294 104.917 256.618 107.318 270.142C107.802 272.878 108.279 275.568 108.708 278.191L109.421 282.551C112.404 300.679 115.487 319.425 116.405 338.262L114.578 338.341Z" fill="#82AA74"/>
<path d="M90.8761 340.971C90.2398 327.301 87.6691 312.772 85.1819 298.72C81.3084 276.84 77.3048 254.211 80.0962 233.087C81.2852 224.105 85.2075 216.628 89.002 209.403C93.3911 201.041 97.5341 193.142 97.9892 182.929C98.9228 161.856 97.202 140.306 95.5369 119.465C94.4013 105.252 93.2286 90.5547 92.9081 76.1428C92.5876 61.7613 93.3795 47.2324 94.1435 33.1809C94.7055 22.8903 95.2838 12.2464 95.4231 1.7522L97.2136 1.7756C97.0743 12.3096 96.4937 22.9699 95.934 33.2792C95.1677 47.3002 94.3781 61.7894 94.6962 76.103C95.0167 90.4611 96.1895 105.131 97.3204 119.318C98.9901 140.212 100.716 161.821 99.7774 183.008C99.306 193.626 94.8727 202.075 90.5858 210.243C86.8656 217.334 83.0176 224.662 81.8704 233.328C79.1162 254.172 83.0942 276.658 86.9445 298.404C89.441 312.512 92.0233 327.099 92.6643 340.886L90.8761 340.971Z" fill="#82AA74"/>
<path d="M68.8876 349.736C68.554 336.235 66.939 322.279 65.3746 308.78C63.0487 288.689 60.6422 267.915 62.3309 247.834C63.2948 236.363 67.9512 226.227 72.4535 216.429C77.271 205.935 82.2563 195.086 82.5646 182.71C83.0362 164.079 79.6636 145.258 76.4059 127.053C73.8914 113.006 71.2917 98.4801 70.4589 84.0991C69.4581 66.7544 70.1437 49.0355 70.8086 31.9013C71.1928 22.0021 71.5885 11.7707 71.6529 1.7522L73.4267 1.76155C73.3622 11.8105 72.9642 22.0606 72.5823 31.9715C71.9175 49.0636 71.2319 66.7381 72.2303 83.9939C73.054 98.2626 75.6444 112.735 78.1521 126.73C81.4258 145.024 84.8123 163.936 84.3384 182.757C84.0186 195.512 78.955 206.534 74.0593 217.194C69.6238 226.852 65.041 236.838 64.0977 247.993C62.4252 267.887 64.8201 288.57 67.1368 308.567C68.7012 322.106 70.3255 336.104 70.6613 349.694L68.8876 349.736Z" fill="#82AA74"/>
<path d="M49.1466 359.378H47.3488C47.3605 347.291 46.6003 334.724 45.8658 322.571C44.6067 301.767 43.3055 280.259 45.7259 259.74C47.2043 247.192 52.2223 235.524 57.0794 224.241C62.7129 211.148 68.5377 197.608 68.6637 182.829C68.8082 166.066 63.4241 149.5 58.2173 133.479C54.4305 121.822 50.5107 109.765 48.7502 97.718C45.6536 76.563 46.5584 53.9415 47.4304 32.0662C47.8315 22.0278 48.2442 11.6479 48.2442 1.7522H50.0397C50.0397 11.683 49.627 22.0816 49.2259 32.1387C48.3562 53.9322 47.4561 76.4671 50.5317 97.456C52.2689 109.354 56.1653 121.336 59.9288 132.92C65.18 149.079 70.606 165.79 70.4615 182.848C70.3332 197.992 64.4315 211.7 58.7279 224.959C53.9268 236.125 48.9601 247.665 47.5097 259.955C45.1103 280.313 46.4068 301.744 47.659 322.466C48.3981 334.642 49.1606 347.237 49.1466 359.378Z" fill="#82AA74"/>
<path d="M25.3097 363.761H23.4844C23.4844 353.792 23.1671 343.424 22.8641 333.397C22.1894 311.167 21.491 288.177 24.0289 266.384C25.6009 252.89 30.987 240.156 36.1955 227.843C42.2634 213.494 48.5373 198.658 48.6296 182.752C48.7196 166.845 42.3297 151.968 36.1505 137.578C31.4321 126.586 26.5503 115.22 24.5166 103.381C20.6576 80.9312 21.6614 56.3305 22.6345 32.5387C23.0701 21.8292 23.4844 11.7112 23.4844 1.7522H25.3097C25.3097 11.7463 24.8954 21.8807 24.4574 32.6112C23.4915 56.3118 22.49 80.8166 26.3159 103.079C28.3141 114.712 33.1509 125.981 37.8314 136.872C44.084 151.432 50.5473 166.483 50.455 182.761C50.3603 199.025 44.0154 214.027 37.8788 228.538C32.7176 240.736 27.3837 253.349 25.8448 266.59C23.321 288.252 24.0147 311.176 24.6894 333.346C24.9949 343.387 25.3097 353.764 25.3097 363.761Z" fill="#82AA74"/>
<mask id="mask1_1102_2" style="mask-type:luminance" maskUnits="userSpaceOnUse" x="1" y="67" width="121" height="155">
<path d="M1.56836 67.3223H121.142V221.024H1.56836V67.3223Z" fill="white"/>
</mask>
<g mask="url(#mask1_1102_2)">
<path d="M67.6538 220.924H103.212V210.922H67.5821L67.6538 220.924ZM103.212 162.416V126.943H71.8066L67.8896 162.416H39.2518L65.8987 102.926H29.8362L1.6123 165.285V188.569H67.4225L67.5058 200.599H103.212V188.569H120.76V162.416H103.212ZM45.9506 67.3252L35.9545 89.4007H71.9639L76.8891 78.4039L45.9506 67.3252Z" fill="#A5E723"/>
</g>
<path d="M251.759 114.114H215.382C216.262 118.757 216.862 124.465 217.2 131.226H254.416C253.897 125.099 253.007 119.398 251.759 114.114ZM239.848 87.2053C229.737 73.7406 215.125 67 196.006 67C176.873 67 162.263 73.7406 152.162 87.2053C144.032 98.0479 139.171 112.714 137.582 131.226H174.809C175.159 124.427 175.784 118.705 176.683 114.072C178.143 106.523 180.423 101.12 183.513 97.8676C186.595 94.6085 190.753 92.979 196.006 92.979C201.247 92.979 205.405 94.5312 208.496 97.6428C209.643 98.7877 210.66 100.242 211.57 101.998H248.012C245.809 96.4558 243.087 91.5274 239.848 87.2053ZM217.52 145.494C217.52 158.919 216.79 169.429 215.319 177.036C213.855 184.659 211.58 190.063 208.496 193.238C205.405 196.427 201.247 198.019 196.006 198.019C190.753 198.019 186.595 196.384 183.513 193.132C180.423 189.878 178.143 184.437 176.683 176.809C175.212 169.204 174.48 158.767 174.48 145.494H137C137.012 170.607 142.062 189.967 152.162 203.57C162.263 217.184 176.873 224 196.006 224C215.125 224 229.737 217.184 239.848 203.57C249.938 189.967 254.986 170.607 255 145.494H217.52Z" fill="#A5E723"/>
<mask id="mask2_1102_2" style="mask-type:luminance" maskUnits="userSpaceOnUse" x="272" y="67" width="120" height="155">
<path d="M272.088 67.3223H391.661V221.024H272.088V67.3223Z" fill="white"/>
</mask>
<g mask="url(#mask2_1102_2)">
<path d="M316.565 67.3252L306.576 89.4007H342.59L347.513 78.4039L316.565 67.3252ZM338.25 217.145L338.275 220.924H373.834V217.145H338.25ZM373.834 162.416V154.165H339.418L338.497 162.416H309.876L336.525 102.926H300.458L272.236 165.285V188.569H338.044L338.162 204.686H373.834V188.569H391.387V162.416H373.834ZM342.433 126.943L340.289 146.339H373.834V126.943H342.433Z" fill="#A5E723"/>
</g>
<mask id="mask3_1102_2" style="mask-type:luminance" maskUnits="userSpaceOnUse" x="0" y="244" width="41" height="52">
<path d="M0 244.953H40.6363V295.801H0V244.953Z" fill="white"/>
</mask>
<g mask="url(#mask3_1102_2)">
<path d="M29.4031 266.257C29.4563 271.863 29.9951 277.81 31.061 284.108L15.5293 244.983H0.0693359V295.381H11.1314V276.911C11.1314 272.889 10.9949 269.41 10.7105 266.472C10.4377 263.537 10.0446 260.154 9.53818 256.333L24.6907 295.381H40.5299V266.257H29.4031ZM29.3939 244.983V257.357H40.5299V244.983H29.3939Z" fill="#A5E723"/>
</g>
<mask id="mask4_1102_2" style="mask-type:luminance" maskUnits="userSpaceOnUse" x="48" y="243" width="49" height="54">
<path d="M48.3311 243.156H96.1123V296.587H48.3311V243.156Z" fill="white"/>
</mask>
<g mask="url(#mask4_1102_2)">
<path d="M89.8137 250.652C85.6492 246.051 79.8246 243.745 72.3466 243.745C67.4538 243.745 63.2269 244.801 59.6983 246.906C56.1582 249.021 53.4413 252.061 51.5498 256.032C51.3394 256.471 51.1498 256.908 50.9671 257.356H63.9576C64.0825 257.113 64.2189 256.875 64.3576 256.651C66.1011 253.865 68.7625 252.475 72.3466 252.475C75.9399 252.475 78.6106 253.856 80.3772 256.62C82.153 259.385 83.0294 263.89 83.0294 270.143C83.0294 276.397 82.1623 280.925 80.4188 283.713C78.6753 286.498 75.9931 287.884 72.3466 287.884C68.8157 287.884 66.1635 286.487 64.39 283.669C62.6234 280.864 61.747 276.347 61.747 270.143C61.747 268.767 61.7887 267.465 61.8835 266.257H48.8861C48.7704 267.507 48.708 268.8 48.708 270.143C48.708 275.728 49.6584 280.488 51.5498 284.437C53.4413 288.389 56.1582 291.408 59.6983 293.49C63.2269 295.572 67.4538 296.619 72.3466 296.619C77.2487 296.619 81.4755 295.563 85.0365 293.448C88.5974 291.343 91.3236 288.302 93.2243 284.335C95.1158 280.35 96.0684 275.621 96.0684 270.143C96.0684 261.754 93.9758 255.265 89.8137 250.652Z" fill="#A5E723"/>
</g>
<path d="M111.513 289.747V295H123.891V289.747H111.513ZM98 245V254.088H111.513V282.692H123.891V254.088H136.789L138 245H98Z" fill="#A5E723"/>
<path d="M164 289.747V295H175.916V289.747H164ZM192.761 253.441L194 245H164V282.692H175.916V275.164H190.584V266.723H175.916V253.441H192.761Z" fill="#A5E723"/>
<mask id="mask5_1102_2" style="mask-type:luminance" maskUnits="userSpaceOnUse" x="198" y="243" width="49" height="54">
<path d="M198.095 243.156H246.042V296.587H198.095V243.156Z" fill="white"/>
</mask>
<g mask="url(#mask5_1102_2)">
<path d="M232.853 273.719C232.58 278.161 231.755 281.493 230.36 283.713C228.617 286.498 225.921 287.884 222.288 287.884C218.757 287.884 216.107 286.487 214.331 283.669C212.567 280.864 211.677 276.347 211.677 270.143C211.677 263.942 212.553 259.441 214.301 256.651C216.045 253.865 218.704 252.475 222.288 252.475C225.879 252.475 228.554 253.856 230.319 256.62C231.701 258.777 232.536 261.976 232.832 266.257H245.839C245.291 259.724 243.251 254.527 239.753 250.652C235.591 246.051 229.768 243.745 222.288 243.745C217.395 243.745 213.166 244.801 209.637 246.906C206.102 249.021 203.385 252.061 201.491 256.032C199.6 260.013 198.649 264.71 198.649 270.143C198.649 275.728 199.6 280.488 201.491 284.437C203.385 288.389 206.102 291.408 209.637 293.49C213.166 295.572 217.395 296.619 222.288 296.619C227.192 296.619 231.417 295.563 234.98 293.448C238.539 291.343 241.274 288.302 243.168 284.335C244.634 281.248 245.534 277.703 245.86 273.719H232.853Z" fill="#A5E723"/>
</g>
<mask id="mask6_1102_2" style="mask-type:luminance" maskUnits="userSpaceOnUse" x="253" y="244" width="42" height="53">
<path d="M253.439 244.953H294.582V296.589H253.439V244.953Z" fill="white"/>
</mask>
<g mask="url(#mask6_1102_2)">
<path d="M282.075 273.719V278.14C282.075 281.397 281.428 283.809 280.14 285.377C278.852 286.959 276.792 287.746 273.959 287.746C271.18 287.746 269.152 286.959 267.864 285.377C266.571 283.809 265.929 281.397 265.929 278.14V273.719H253.5V278.654C253.5 284.127 255.246 288.494 258.735 291.738C262.22 294.993 267.293 296.619 273.959 296.619C278.406 296.619 282.17 295.839 285.255 294.292C288.33 292.742 290.642 290.609 292.187 287.884C293.72 285.174 294.49 282.098 294.49 278.654V273.719H282.075ZM282.075 244.983V266.257H294.49V244.983H282.075ZM253.5 244.983V266.257H265.929V244.983H253.5Z" fill="#A5E723"/>
</g>
<path d="M333.716 245V265.195C333.716 271.021 334.271 277.225 335.398 283.816L319.657 245H304V295H315.214V276.676C315.214 272.686 315.062 269.234 314.783 266.32C314.507 263.408 314.108 260.051 313.595 256.26L327.427 291.163H345V245H333.716Z" fill="#A5E723"/>
<path d="M385.088 270.461C385.058 276.681 383.987 281.012 381.901 283.451C379.772 285.931 376.655 287.159 372.556 287.159H368.444V253.748H372.396C375.088 253.748 377.331 254.198 379.156 255.105C380.978 256.014 382.429 257.661 383.488 260.055C383.818 260.786 384.093 261.605 384.314 262.524H397.344C396.315 256.981 394.038 252.938 390.51 250.403C385.521 246.803 378.901 245 370.648 245H356V292H387.969C388.934 291.441 389.836 290.815 390.705 290.138C395.522 286.328 397.961 279.764 398 270.461H385.088Z" fill="#A5E723"/>
<mask id="mask7_1102_2" style="mask-type:luminance" maskUnits="userSpaceOnUse" x="11" y="89" width="121" height="122">
<path d="M11.75 89.4043H98.4541V102.925H11.75V89.4043ZM131.328 132.1H131.797V146.34H131.328V132.1ZM61.8227 200.597H131.797V210.917H61.8227V200.597Z" fill="white"/>
</mask>
<g mask="url(#mask7_1102_2)">
<path d="M113.779 188.561V220.921H78.2159L77.9847 188.561H12.1768V165.292L56.5104 67.327L87.4535 78.408L49.8163 162.408H78.4494L82.3734 126.948H113.779V162.408H131.327V188.561H113.779Z" fill="#A5E723"/>
</g>
<mask id="mask8_1102_2" style="mask-type:luminance" maskUnits="userSpaceOnUse" x="147" y="102" width="119" height="45">
<path d="M209.218 102.926H265.576V115.023H209.218V102.926ZM147.187 132.1H265.576V146.341H147.187V132.1Z" fill="white"/>
</mask>
<g mask="url(#mask8_1102_2)">
<path d="M193.903 98.8017C190.82 102.052 188.552 107.445 187.088 114.979C185.625 122.515 184.894 132.933 184.894 146.231C184.894 159.53 185.625 169.985 187.088 177.591C188.552 185.204 190.82 190.635 193.903 193.883C196.978 197.133 201.135 198.757 206.368 198.757C211.601 198.757 215.758 197.173 218.841 193.995C221.916 190.817 224.187 185.426 225.65 177.813C227.112 170.204 227.845 159.677 227.845 146.231C227.845 132.785 227.112 122.258 225.65 114.647C224.187 107.041 221.916 101.683 218.841 98.5797C215.758 95.4742 211.601 93.9249 206.368 93.9249C201.135 93.9249 196.978 95.5536 193.903 98.8017ZM250.131 88.1624C260.21 101.608 265.251 120.964 265.251 146.231C265.251 171.352 260.21 190.705 250.131 204.3C240.042 217.896 225.456 224.689 206.368 224.689C187.283 224.689 172.692 217.896 162.613 204.3C152.529 190.705 147.49 171.352 147.49 146.231C147.49 120.964 152.529 101.608 162.613 88.1624C172.692 74.7166 187.283 67.9937 206.368 67.9937C225.456 67.9937 240.042 74.7166 250.131 88.1624Z" fill="#A5E723"/>
</g>
<mask id="mask9_1102_2" style="mask-type:luminance" maskUnits="userSpaceOnUse" x="284" y="89" width="119" height="129">
<path d="M298.516 89.4043H361.916V102.925H298.516V89.4043ZM342.375 146.34H397.842V154.163H342.375V146.34ZM284.565 204.687H402.317V217.144H284.565V204.687Z" fill="white"/>
</mask>
<g mask="url(#mask9_1102_2)">
<path d="M384.401 188.561V220.921H348.838L348.611 188.561H282.799V165.292L327.137 67.327L358.078 78.408L320.438 162.408H349.072L352.995 126.948H384.401V162.408H401.949V188.561H384.401Z" fill="#A5E723"/>
</g>
<mask id="mask10_1102_2" style="mask-type:luminance" maskUnits="userSpaceOnUse" x="36" y="257" width="16" height="10">
<path d="M36.1094 257.352H51.2711V266.257H36.1094V257.352Z" fill="white"/>
</mask>
<g mask="url(#mask10_1102_2)">
<path d="M35.2603 295.38L20.1079 256.325C20.612 260.155 21.0027 263.539 21.2825 266.472C21.5577 269.407 21.6987 272.881 21.6987 276.908V295.38H10.6367V244.983H26.0921L41.6261 284.107C40.5116 277.464 39.9566 271.211 39.9566 265.345V244.983H51.0973V295.38H35.2603Z" fill="#A5E723"/>
</g>
<mask id="mask11_1102_2" style="mask-type:luminance" maskUnits="userSpaceOnUse" x="58" y="257" width="25" height="10">
<path d="M58.9863 257.352H82.9556V266.257H58.9863V257.352Z" fill="white"/>
</mask>
<g mask="url(#mask11_1102_2)">
<path d="M74.9246 256.654C73.1812 259.444 72.3118 263.94 72.3118 270.144C72.3118 276.351 73.1927 280.861 74.9593 283.672C76.7282 286.485 79.3804 287.892 82.9159 287.892C86.5532 287.892 89.2424 286.497 90.9858 283.707C92.727 280.922 93.601 276.398 93.601 270.144C93.601 263.891 92.7154 259.384 90.9465 256.619C89.1799 253.857 86.5023 252.474 82.9159 252.474C79.3296 252.474 76.6635 253.869 74.9246 256.654ZM100.378 250.656C104.547 255.264 106.631 261.76 106.631 270.144C106.631 275.624 105.685 280.351 103.789 284.326C101.895 288.303 99.1667 291.344 95.6081 293.451C92.0449 295.564 87.8134 296.615 82.9159 296.615C78.0162 296.615 73.7986 295.573 70.2631 293.491C66.7276 291.407 64.0129 288.39 62.1192 284.436C60.2254 280.485 59.2773 275.725 59.2773 270.144C59.2773 264.716 60.2254 260.014 62.1192 256.037C64.0129 252.062 66.7276 249.018 70.2631 246.91C73.7986 244.802 78.0162 243.748 82.9159 243.748C90.3916 243.748 96.2139 246.05 100.378 250.656Z" fill="#A5E723"/>
</g>
<mask id="mask12_1102_2" style="mask-type:luminance" maskUnits="userSpaceOnUse" x="117" y="282" width="33" height="9">
<path d="M117.474 282.973H149.314V290.09H117.474V282.973Z" fill="white"/>
</mask>
<g mask="url(#mask12_1102_2)">
<path d="M135.119 254.146V295.381H122.692V254.146H109.131V244.983H149.288L148.075 254.146H135.119Z" fill="#A5E723"/>
</g>
<mask id="mask13_1102_2" style="mask-type:luminance" maskUnits="userSpaceOnUse" x="173" y="282" width="25" height="9">
<path d="M173.824 282.973H197.426V290.09H173.824V282.973Z" fill="white"/>
</mask>
<g mask="url(#mask13_1102_2)">
<path d="M186.336 253.492V266.872H201.642V275.38H186.336V295.381H173.91V244.983H205.202L203.917 253.492H186.336Z" fill="#A5E723"/>
</g>
<mask id="mask14_1102_2" style="mask-type:luminance" maskUnits="userSpaceOnUse" x="234" y="266" width="23" height="8">
<path d="M234.411 266.258H256.697V273.719H234.411V266.258Z" fill="white"/>
</mask>
<g mask="url(#mask14_1102_2)">
<path d="M224.861 256.655C223.118 259.445 222.249 263.941 222.249 270.145C222.249 276.352 223.13 280.862 224.901 283.673C226.67 286.486 229.32 287.893 232.857 287.893C236.492 287.893 239.184 286.498 240.925 283.708C242.668 280.923 243.542 276.399 243.542 270.145C243.542 263.892 242.657 259.385 240.888 256.62C239.121 253.858 236.444 252.475 232.857 252.475C229.271 252.475 226.607 253.87 224.861 256.655ZM250.32 250.657C254.487 255.265 256.572 261.761 256.572 270.145C256.572 275.625 255.624 280.352 253.73 284.327C251.839 288.304 249.108 291.345 245.545 293.452C241.986 295.565 237.755 296.616 232.857 296.616C227.958 296.616 223.74 295.574 220.202 293.492C216.667 291.408 213.954 288.391 212.061 284.437C210.164 280.486 209.219 275.726 209.219 270.145C209.219 264.717 210.164 260.015 212.061 256.038C213.954 252.063 216.667 249.019 220.202 246.911C223.74 244.803 227.958 243.749 232.857 243.749C240.333 243.749 246.153 246.051 250.32 250.657Z" fill="#A5E723"/>
</g>
<mask id="mask15_1102_2" style="mask-type:luminance" maskUnits="userSpaceOnUse" x="263" y="266" width="43" height="8">
<path d="M263.801 266.258H305.121V273.719H263.801V266.258Z" fill="white"/>
</mask>
<g mask="url(#mask15_1102_2)">
<path d="M302.749 287.893C301.209 290.606 298.899 292.742 295.817 294.294C292.737 295.841 288.975 296.616 284.53 296.616C277.862 296.616 272.784 294.995 269.299 291.746C265.815 288.498 264.071 284.136 264.071 278.656V244.985H276.5V278.144C276.5 281.392 277.14 283.804 278.428 285.381C279.716 286.961 281.749 287.746 284.53 287.746C287.356 287.746 289.416 286.961 290.704 285.381C291.99 283.804 292.635 281.392 292.635 278.144V244.985H305.064V278.656C305.064 282.098 304.291 285.175 302.749 287.893Z" fill="#A5E723"/>
</g>
<mask id="mask16_1102_2" style="mask-type:luminance" maskUnits="userSpaceOnUse" x="331" y="291" width="25" height="5">
<path d="M331.979 291.514H355.552V295.802H331.979V291.514Z" fill="white"/>
</mask>
<g mask="url(#mask16_1102_2)">
<path d="M339.611 295.383L324.454 256.329C324.96 260.159 325.351 263.542 325.631 266.475C325.908 269.41 326.047 272.885 326.047 276.911V295.383H314.987V244.986H330.44L345.972 284.111C344.862 277.467 344.307 271.214 344.307 265.349V244.986H355.448V295.383H339.611Z" fill="#A5E723"/>
</g>
<mask id="mask17_1102_2" style="mask-type:luminance" maskUnits="userSpaceOnUse" x="365" y="262" width="43" height="34">
<path d="M387 262.334H408V270.183H387V262.334ZM365.926 291.511H405.942V295.799H365.926V291.511Z" fill="white"/>
</mask>
<g mask="url(#mask17_1102_2)">
<path d="M378.477 286.728H382.567C386.66 286.728 389.765 285.501 391.888 283.052C394.011 280.606 395.07 276.231 395.07 269.929C395.07 265.613 394.538 262.269 393.479 259.89C392.42 257.518 390.979 255.88 389.159 254.983C387.342 254.088 385.094 253.637 382.417 253.637H378.477V286.728ZM400.487 250.328C405.461 253.889 407.952 260.425 407.952 269.929C407.952 279.285 405.526 285.866 400.679 289.672C395.828 293.477 389.539 295.381 381.811 295.381H366.053V244.984H380.673C388.907 244.984 395.511 246.767 400.487 250.328Z" fill="#A5E723"/>
</g>
<mask id="mask18_1102_2" style="mask-type:luminance" maskUnits="userSpaceOnUse" x="163" y="351" width="81" height="28">
<path d="M163.979 351.082H243.891V378.002H163.979V351.082Z" fill="white"/>
</mask>
<g mask="url(#mask18_1102_2)">
<path d="M238.652 351.945C236.897 351.945 235.345 354.02 234.395 357.205C233.442 354.02 231.891 351.945 230.136 351.945C228.381 351.945 226.829 354.02 225.879 357.205C224.928 354.02 223.374 351.945 221.622 351.945C219.286 351.945 217.312 355.613 216.632 360.68C214.99 355.155 209.919 351.12 203.935 351.12C197.951 351.12 192.88 355.155 191.238 360.682C190.558 355.613 188.584 351.945 186.251 351.945C184.496 351.945 182.944 354.02 181.991 357.205C181.041 354.02 179.489 351.945 177.734 351.945C175.979 351.945 174.428 354.02 173.477 357.205C172.525 354.02 170.973 351.945 169.218 351.945C166.325 351.945 163.979 357.586 163.979 364.545C163.979 371.506 166.325 377.147 169.218 377.147C170.973 377.147 172.525 375.072 173.477 371.887C174.428 375.072 175.979 377.147 177.734 377.147C179.489 377.147 181.041 375.072 181.991 371.887C182.944 375.072 184.496 377.147 186.251 377.147C188.584 377.147 190.558 373.478 191.238 368.41C192.88 373.936 197.951 377.972 203.935 377.972C209.919 377.972 214.99 373.936 216.632 368.41C217.312 373.478 219.286 377.147 221.622 377.147C223.374 377.147 224.928 375.072 225.879 371.887C226.829 375.072 228.381 377.147 230.136 377.147C231.891 377.147 233.442 375.072 234.395 371.887C235.345 375.072 236.897 377.147 238.652 377.147C241.544 377.147 243.891 371.506 243.891 364.545C243.891 357.586 241.544 351.945 238.652 351.945ZM211.714 363.72H208.328C208.254 359.738 207.642 355.831 206.522 353.447C209.392 354.975 211.494 358.957 211.714 363.72ZM203.935 352.77C204.841 352.77 206.569 356.632 206.696 363.72H201.174C201.301 356.632 203.029 352.77 203.935 352.77ZM201.35 353.447C200.228 355.831 199.616 359.738 199.542 363.72H196.156C196.378 358.957 198.478 354.975 201.35 353.447ZM197.495 354.749C195.786 357.022 194.672 360.189 194.519 363.72H192.346C192.602 359.981 194.582 356.716 197.495 354.749ZM192.346 365.369H194.519C194.672 368.903 195.786 372.067 197.495 374.343C194.582 372.375 192.602 369.111 192.346 365.369ZM196.156 365.369H199.542C199.616 369.351 200.228 373.261 201.35 375.644C198.478 374.116 196.378 370.134 196.156 365.369ZM203.935 376.322C203.029 376.322 201.301 372.459 201.174 365.369H206.696C206.569 372.459 204.841 376.322 203.935 376.322ZM206.522 375.644C207.642 373.261 208.254 369.351 208.328 365.369H211.714C211.494 370.134 209.392 374.116 206.522 375.644ZM210.377 374.343C212.083 372.067 213.2 368.903 213.351 365.369H215.524C215.268 369.111 213.288 372.375 210.377 374.343ZM213.351 363.72C213.2 360.189 212.083 357.022 210.377 354.749C213.288 356.716 215.268 359.981 215.524 363.72H213.351Z" fill="#A5E723"/>
</g>
<path d="M73 365H335" stroke="#A5E723" stroke-width="3.00047"/>
<mask id="mask19_1102_2" style="mask-type:luminance" maskUnits="userSpaceOnUse" x="375" y="360" width="9" height="9">
<path d="M375.68 360.586H383.553V368.662H375.68V360.586Z" fill="white"/>
</mask>
<g mask="url(#mask19_1102_2)">
<path d="M376.013 367.739L382.559 360.595L383.56 361.504L377.014 368.648L376.013 367.739Z" fill="#A5E723"/>
<path d="M377.009 360.595L383.557 367.741L382.556 368.65L376.008 361.504L377.009 360.595Z" fill="#A5E723"/>
</g>
<mask id="mask20_1102_2" style="mask-type:luminance" maskUnits="userSpaceOnUse" x="365" y="360" width="9" height="9">
<path d="M365.615 360.586H373.902V368.662H365.615V360.586Z" fill="white"/>
</mask>
<g mask="url(#mask20_1102_2)">
<path d="M365.877 367.739L372.423 360.594L373.424 361.505L366.878 368.648L365.877 367.739Z" fill="#A5E723"/>
<path d="M366.875 360.595L373.424 367.739L372.422 368.65L365.874 361.504L366.875 360.595Z" fill="#A5E723"/>
</g>
<mask id="mask21_1102_2" style="mask-type:luminance" maskUnits="userSpaceOnUse" x="355" y="360" width="9" height="9">
<path d="M355.582 360.586H363.247V368.662H355.582V360.586Z" fill="white"/>
</mask>
<g mask="url(#mask21_1102_2)">
<path d="M355.59 367.739L362.136 360.594L363.137 361.505L356.591 368.648L355.59 367.739Z" fill="#A5E723"/>
<path d="M356.588 360.595L363.137 367.739L362.135 368.65L355.587 361.504L356.588 360.595Z" fill="#A5E723"/>
</g>
<mask id="mask22_1102_2" style="mask-type:luminance" maskUnits="userSpaceOnUse" x="44" y="359" width="9" height="9">
<path d="M44.1875 359.861H52.0932V367.937H44.1875V359.861Z" fill="white"/>
</mask>
<g mask="url(#mask22_1102_2)">
<path d="M44.5508 367.009L51.0992 359.863L52.1004 360.774L45.552 367.918L44.5508 367.009Z" fill="#A5E723"/>
<path d="M45.5491 359.865L52.0952 367.008L51.094 367.919L44.5479 360.774L45.5491 359.865Z" fill="#A5E723"/>
</g>
<mask id="mask23_1102_2" style="mask-type:luminance" maskUnits="userSpaceOnUse" x="34" y="359" width="9" height="9">
<path d="M34.125 359.861H42.4123V367.937H34.125V359.861Z" fill="white"/>
</mask>
<g mask="url(#mask23_1102_2)">
<path d="M34.416 367.009L40.9644 359.863L41.9657 360.772L35.4172 367.918L34.416 367.009Z" fill="#A5E723"/>
<path d="M35.4172 359.865L41.9633 367.008L40.9621 367.917L34.416 360.774L35.4172 359.865Z" fill="#A5E723"/>
</g>
<mask id="mask24_1102_2" style="mask-type:luminance" maskUnits="userSpaceOnUse" x="24" y="359" width="8" height="9">
<path d="M24.125 359.861H31.7579V367.937H24.125V359.861Z" fill="white"/>
</mask>
<g mask="url(#mask24_1102_2)">
<path d="M24.1299 367.009L30.6783 359.863L31.6795 360.772L25.1311 367.918L24.1299 367.009Z" fill="#A5E723"/>
<path d="M25.1311 359.865L31.6772 367.008L30.676 367.917L24.1299 360.774L25.1311 359.865Z" fill="#A5E723"/>
</g>
</svg>
