<svg width="985" height="985" viewBox="0 0 985 985" fill="none" xmlns="http://www.w3.org/2000/svg">
<g clipPath="url(#clip0_151_2)">
<rect width="985" height="985" fill="#141D2B"/>
<path d="M991.579 842.829C986.235 881.998 826.623 966.664 753.183 983.083H238.901C165.461 966.664 5.90005 881.998 0.505959 842.829C-4.88814 803.661 32.7365 616.553 118.74 539.626C156.377 506.313 197.62 478.053 241.565 455.467C241.592 455.457 241.622 455.457 241.649 455.467C273.678 510.494 362.379 640.929 496.042 667.24C629.186 641.146 717.669 511.597 750.017 456.136C750.168 455.909 750.308 455.674 750.436 455.431C794.418 478.01 835.69 506.283 873.344 539.626C959.348 616.553 996.922 803.643 991.579 842.829Z" fill="#A4B2CE"/>
<path d="M349.581 983.083H238.901C165.461 966.664 5.90005 881.998 0.505959 842.829C-4.88813 803.661 32.7365 616.553 118.74 539.626C156.377 506.313 197.62 478.053 241.565 455.467C238.215 457.781 131.489 532.05 89.2237 663.895C48.8685 789.99 170.822 963.029 349.581 983.083Z" fill="white"/>
<path d="M991.579 842.829C986.235 881.998 826.624 966.664 753.183 983.083H641.097C819.822 963.029 941.776 789.99 901.437 663.895C860.965 537.475 761.157 464.02 750.034 456.136C750.185 455.909 750.325 455.674 750.453 455.431C794.435 478.01 835.707 506.283 873.361 539.626C959.348 616.553 996.923 803.643 991.579 842.829Z" fill="white"/>
<path d="M838.333 676.264L775.949 951.618H218.113L200.54 873.987L155.812 676.264C154.411 670.024 154.339 663.521 155.603 657.246C156.867 650.972 159.433 645.088 163.109 640.04C166.784 634.991 171.473 630.908 176.822 628.099C182.172 625.29 188.041 623.828 193.99 623.823H800.172C806.12 623.827 811.99 625.289 817.339 628.098C822.687 630.907 827.375 634.991 831.05 640.04C834.724 645.089 837.289 650.973 838.55 657.248C839.812 663.523 839.738 670.025 838.333 676.264Z" fill="#D6FF83"/>
<path d="M159.732 680.477L204.56 878.2L221.212 951.618H218.23L200.657 873.987L155.812 676.264C154.411 670.023 154.339 663.521 155.603 657.246C156.867 650.972 159.433 645.088 163.109 640.04C166.784 634.991 171.473 630.908 176.822 628.099C182.172 625.29 188.041 623.828 193.99 623.822H800.172C805.783 623.794 811.332 625.082 816.437 627.595C821.542 630.108 826.08 633.788 829.739 638.379C822.633 631.681 813.509 628.01 804.075 628.054H197.86C191.915 628.061 186.049 629.525 180.705 632.334C175.36 635.143 170.676 639.226 167.005 644.273C163.334 649.32 160.772 655.201 159.513 661.473C158.253 667.744 158.328 674.242 159.732 680.477V680.477Z" fill="#D6FF83"/>
<path d="M746.365 985H249.12C240.923 985 233.062 981.485 227.265 975.228C221.469 968.971 218.213 960.485 218.213 951.636H777.272C777.272 960.485 774.016 968.971 768.22 975.228C762.423 981.485 754.562 985 746.365 985V985Z" fill="#A2B0CC"/>
<path d="M746.365 985H249.12C240.923 985 233.062 981.485 227.265 975.228C221.469 968.971 218.213 960.485 218.213 951.636H777.272C777.272 960.485 774.016 968.971 768.22 975.228C762.423 981.485 754.562 985 746.365 985V985Z" fill="#9FEF00"/>
<path d="M838.333 676.264L775.949 951.619H218.112L200.54 873.987H388.68C459.598 873.989 528.702 849.788 586.114 804.845C643.525 759.902 686.305 696.517 708.338 623.75H800.172C806.127 623.752 812.004 625.215 817.359 628.028C822.714 630.842 827.406 634.932 831.082 639.99C834.758 645.048 837.32 650.942 838.576 657.226C839.833 663.51 839.749 670.02 838.333 676.264V676.264Z" fill="#9FEF00"/>
<path d="M701.621 144.941C701.621 144.941 701.621 144.76 701.621 144.669C701.621 142.154 701.151 139.664 700.238 137.349C699.326 135.034 697.99 132.942 696.311 131.197L695.791 130.691C695.423 130.347 695.071 130.004 694.669 129.678C694.267 129.353 693.882 129.1 693.48 128.828C693.302 128.685 693.117 128.553 692.927 128.43L504.971 11.2869C504.522 10.9873 504.058 10.7156 503.581 10.4732C500.839 9.05457 497.802 8.43134 494.769 8.66483C493.197 8.7928 491.648 9.14549 490.162 9.71366C489.034 10.1524 487.95 10.7159 486.929 11.3954L299.141 128.43C299.08 128.456 299.023 128.492 298.974 128.539C298.672 128.72 298.387 128.919 298.103 129.118C297.818 129.317 297.835 129.353 297.701 129.461C297.566 129.57 297.03 130.004 296.695 130.293L296.076 130.89C295.641 131.325 295.228 131.784 294.836 132.264V132.264C292.046 135.667 290.503 140.053 290.497 144.597C290.497 144.705 290.497 144.796 290.497 144.904C290.488 145.091 290.488 145.278 290.497 145.465V379.282C290.497 382.678 291.351 386.011 292.968 388.925C294.585 391.839 296.903 394.225 299.677 395.828L487.415 512.845L487.884 513.08C488.269 513.315 488.672 513.514 489.074 513.713L489.861 514.075C490.277 514.252 490.702 514.403 491.134 514.527L491.905 514.78C492.374 514.907 492.843 514.997 493.329 515.087L493.999 515.214C495.4 515.406 496.819 515.406 498.22 515.214L498.907 515.087C499.376 514.997 499.845 514.907 500.314 514.78L501.068 514.563C501.5 514.44 501.925 514.289 502.341 514.111L503.128 513.749C503.53 513.55 503.932 513.351 504.318 513.116L504.787 512.881L692.525 395.864C695.298 394.261 697.617 391.875 699.234 388.961C700.851 386.047 701.705 382.715 701.705 379.318V145.393C701.686 145.24 701.658 145.089 701.621 144.941ZM364.105 137.038L491.955 57.345C493.198 56.5723 494.608 56.1656 496.042 56.1656C497.477 56.1656 498.886 56.5723 500.13 57.345L627.997 137.038C629.238 137.813 630.27 138.927 630.986 140.268C631.703 141.609 632.081 143.13 632.081 144.678C632.081 146.227 631.703 147.748 630.986 149.089C630.27 150.43 629.238 151.544 627.997 152.318L500.13 232.012C498.886 232.784 497.477 233.191 496.042 233.191C494.608 233.191 493.198 232.784 491.955 232.012L364.105 152.318C362.859 151.547 361.823 150.435 361.103 149.093C360.383 147.752 360.004 146.229 360.004 144.678C360.004 143.128 360.383 141.605 361.103 140.263C361.823 138.922 362.859 137.809 364.105 137.038V137.038ZM473.896 439.915C473.893 441.461 473.513 442.978 472.796 444.315C472.079 445.653 471.049 446.763 469.809 447.536C468.569 448.309 467.163 448.716 465.731 448.718C464.299 448.72 462.892 448.316 461.651 447.546L334.052 368.088C332.81 367.316 331.778 366.204 331.06 364.865C330.343 363.525 329.965 362.005 329.965 360.457V201.342C329.963 199.795 330.339 198.274 331.055 196.933C331.772 195.593 332.802 194.479 334.044 193.706C335.286 192.932 336.694 192.525 338.128 192.526C339.561 192.527 340.969 192.936 342.21 193.711L469.809 273.278C471.051 274.05 472.083 275.162 472.801 276.501C473.518 277.841 473.896 279.361 473.896 280.909V439.915ZM662.12 360.349C662.138 361.915 661.768 363.457 661.05 364.818C660.331 366.178 659.29 367.307 658.033 368.088L530.434 447.655C529.192 448.424 527.785 448.828 526.354 448.827C524.922 448.825 523.516 448.417 522.276 447.645C521.036 446.872 520.006 445.761 519.289 444.424C518.571 443.086 518.192 441.569 518.188 440.024V280.891C518.188 279.343 518.566 277.823 519.284 276.483C520.001 275.144 521.033 274.032 522.276 273.26L649.875 193.693C651.115 192.918 652.523 192.509 653.957 192.508C655.391 192.507 656.799 192.914 658.041 193.688C659.282 194.461 660.313 195.575 661.029 196.915C661.745 198.256 662.122 199.777 662.12 201.324V360.349Z" fill="#9FEF00"/>
</g>
<defs>
<clipPath id="clip0_151_2">
<rect width="985" height="985" fill="white"/>
</clipPath>
</defs>
</svg>
